<svg width="22" height="22" viewBox="0 0 22 22" fill="none" xmlns="http://www.w3.org/2000/svg">
<path d="M11.8943 7.73197C12.5668 6.67538 13.0833 5.53327 13.4318 4.3349C14.8448 7.35915 17.9178 9.45995 21.4724 9.45995V12.54C21.4625 12.54 21.4526 12.54 21.4426 12.54C16.553 12.54 12.5747 16.5152 12.5747 21.4009H9.49219V21.399C9.49219 16.9376 11.9534 13.0402 15.5912 10.9911C14.1446 10.1704 12.8852 9.05699 11.8943 7.73197Z" fill="#F1F1EF"/>
<path d="M8.65037 17.6185C7.28546 14.7263 4.39969 12.6857 1.03019 12.5332C0.89519 12.5377 0.759768 12.54 0.624023 12.54V9.44402C0.760278 9.44402 0.896023 9.44633 1.03121 9.45086C3.24622 9.35138 5.3153 8.4416 6.89499 6.86501C8.5711 5.19218 9.49005 2.96491 9.49005 0.59906H12.5726C12.5726 3.7888 11.3299 6.78606 9.07202 9.04222C8.29799 9.81558 7.43686 10.4697 6.51069 10.9956C7.9514 11.8137 9.20628 12.9224 10.1949 14.2415C9.5316 15.2784 9.0078 16.4129 8.65037 17.6185Z" fill="#F1F1EF"/>
</svg>
